<svg width="1967" height="921" viewBox="0 0 1967 921" fill="none" xmlns="http://www.w3.org/2000/svg">
<path fill-rule="evenodd" clip-rule="evenodd" d="M36.1906 1.04999C17.1305 1.04999 1.24063 16.9362 1.24063 36.4C1.24063 55.8638 17.1305 71.75 36.1906 71.75C56.0544 71.75 71.9406 55.8601 71.9406 36.4C71.9406 16.9399 56.0544 1.04999 36.1906 1.04999ZM0.740625 36.4C0.740625 16.6638 16.8507 0.549988 36.1906 0.549988C56.3269 0.549988 72.4406 16.6601 72.4406 36.4C72.4406 56.1399 56.3269 72.25 36.1906 72.25C16.8507 72.25 0.740625 56.1362 0.740625 36.4ZM1239.14 6.14999H1239.39H1300.19H1300.44V6.39999V296V296.25H1300.19H1239.39H1239.14V296V6.39999V6.14999ZM1239.64 6.64999V295.75H1299.94V6.64999H1239.64ZM1570 6.14999H1570.25H1629.85H1630.1V6.39999V115.205C1638.88 102.98 1660.68 92.15 1687.45 92.15C1716.32 92.15 1739.49 103.179 1755.44 121.687C1771.39 140.191 1780.1 166.153 1780.1 196C1780.1 256.914 1740.81 300.65 1685.05 300.65C1659.02 300.65 1638.77 289.397 1629.3 274.478V296V296.25H1629.05H1570.25H1570V296V6.39999V6.14999ZM1570.5 6.64999V295.75H1628.8V273.6V272.704L1629.27 273.471C1638.41 288.581 1658.72 300.15 1685.05 300.15C1740.49 300.15 1779.6 256.686 1779.6 196C1779.6 166.247 1770.92 140.409 1755.06 122.013C1739.21 103.621 1716.18 92.65 1687.45 92.65C1660.31 92.65 1638.4 103.831 1630.06 116.14L1629.6 116.815V116V6.64999H1570.5ZM449.344 91.45C390.277 91.45 343.994 134.943 343.994 196.4C343.994 257.858 390.278 301.75 449.344 301.75C508.809 301.75 554.694 257.859 554.694 196.4C554.694 134.942 508.81 91.45 449.344 91.45ZM343.494 196.4C343.494 134.657 390.011 90.95 449.344 90.95C509.077 90.95 555.194 134.658 555.194 196.4C555.194 258.141 509.079 302.25 449.344 302.25C390.009 302.25 343.494 258.142 343.494 196.4ZM1117.47 91.45C1073.17 91.45 1041.32 120.967 1041.32 157.2C1041.32 171.148 1045.5 184.086 1054.95 194.684C1064.41 205.284 1079.15 213.564 1100.32 218.156L1100.32 218.156L1123.12 223.356L1123.12 223.356C1130.54 224.961 1135.49 227.274 1138.58 230.116C1141.69 232.967 1142.92 236.336 1142.92 240C1142.92 244.475 1140.98 248.845 1137.08 252.092C1133.17 255.338 1127.31 257.45 1119.47 257.45C1109.01 257.45 1101.34 254.131 1096.19 249.079C1091.11 244.098 1088.49 237.452 1088.03 230.695L1036.93 239.806C1037.78 250.738 1043.18 266.155 1056.04 278.872C1068.99 291.671 1089.52 301.75 1120.67 301.75C1147.21 301.75 1166.95 293.468 1180.04 280.969C1193.14 268.469 1199.62 251.736 1199.62 234.8C1199.62 220.26 1194.64 206.822 1184.53 195.97C1174.43 185.117 1159.18 176.837 1138.62 172.645L1138.62 172.645L1112.22 167.446L1112.22 167.445C1107.79 166.64 1103.84 165.026 1101 162.538C1098.15 160.044 1096.42 156.676 1096.42 152.4C1096.42 141.802 1106.6 134.95 1118.27 134.95C1127.52 134.95 1134.29 137.768 1138.94 142.27C1143.53 146.71 1146.04 152.765 1146.88 159.307L1196.8 150.195C1195.75 138.684 1190.26 124.058 1177.94 112.281C1165.55 100.431 1146.21 91.45 1117.47 91.45ZM1040.82 157.2C1040.82 120.633 1072.96 90.95 1117.47 90.95C1146.32 90.95 1165.79 99.969 1178.29 111.919C1190.79 123.865 1196.31 138.724 1197.31 150.379L1197.33 150.605L1197.11 150.646L1146.71 159.846L1146.45 159.894L1146.42 159.63C1145.62 153.072 1143.14 147.03 1138.59 142.63C1134.05 138.232 1127.41 135.45 1118.27 135.45C1106.74 135.45 1096.92 142.198 1096.92 152.4C1096.92 156.524 1098.58 159.756 1101.33 162.162C1104.09 164.573 1107.94 166.159 1112.31 166.954L1112.31 166.955L1138.71 172.155L1138.72 172.155C1159.35 176.363 1174.71 184.683 1184.9 195.63C1195.09 206.578 1200.12 220.14 1200.12 234.8C1200.12 251.864 1193.59 268.731 1180.39 281.331C1167.18 293.932 1147.32 302.25 1120.67 302.25C1089.41 302.25 1068.74 292.129 1055.69 279.228C1042.64 266.332 1037.22 250.674 1036.42 239.618L1036.4 239.393L1036.62 239.354L1088.22 230.154L1088.5 230.104L1088.52 230.385C1088.91 237.133 1091.49 243.771 1096.54 248.721C1101.59 253.669 1109.12 256.95 1119.47 256.95C1127.22 256.95 1132.96 254.862 1136.76 251.708C1140.55 248.555 1142.42 244.325 1142.42 240C1142.42 236.464 1141.24 233.233 1138.25 230.484C1135.24 227.727 1130.39 225.44 1123.01 223.844L1123.01 223.844L1100.21 218.644C1078.98 214.036 1064.12 205.716 1054.58 195.016C1045.03 184.314 1040.82 171.252 1040.82 157.2ZM1344.16 157L1396.47 167.699C1397.8 152.877 1409.49 138.55 1430.69 138.55C1440.34 138.55 1447.7 141.061 1452.65 145.055C1457.61 149.052 1460.14 154.523 1460.14 160.4C1460.14 163.845 1459.23 166.914 1456.92 169.323C1454.62 171.727 1450.96 173.442 1445.53 174.247L1445.53 174.247L1398.73 181.447L1398.73 181.447C1382.37 183.842 1367.72 190.025 1357.17 199.982C1346.62 209.934 1340.14 223.668 1340.14 241.2C1340.14 272.65 1365.22 301.35 1408.69 301.35C1435.02 301.35 1454.13 290.186 1464.48 273.468L1464.94 272.721V273.6C1464.94 286.698 1466.43 293.842 1466.89 295.75H1521.19C1520.69 292.96 1518.84 280.185 1518.84 265.2V168C1518.84 147.647 1512.96 128.517 1499.07 114.476C1485.18 100.436 1463.25 91.45 1431.09 91.45C1372.97 91.45 1346.67 128.757 1344.16 157ZM1343.64 157.179C1346.06 128.648 1372.57 90.95 1431.09 90.95C1463.34 90.95 1485.41 99.9639 1499.42 114.124C1513.43 128.283 1519.34 147.553 1519.34 168V265.2C1519.34 280.783 1521.34 293.967 1521.74 295.951L1521.8 296.25H1521.49H1466.69H1466.5L1466.45 296.061C1466.05 294.475 1464.51 287.525 1464.45 274.463C1453.89 290.938 1434.79 301.85 1408.69 301.85C1364.97 301.85 1339.64 272.95 1339.64 241.2C1339.64 223.532 1346.17 209.666 1356.82 199.618C1367.47 189.575 1382.22 183.358 1398.66 180.953L1445.46 173.753L1445.46 173.753C1450.83 172.957 1454.37 171.273 1456.56 168.977C1458.76 166.686 1459.64 163.755 1459.64 160.4C1459.64 154.677 1457.18 149.348 1452.34 145.445C1447.49 141.539 1440.25 139.05 1430.69 139.05C1409.63 139.05 1398.13 153.342 1396.94 168.02L1396.92 168.301L1396.64 168.245L1343.84 157.445L1343.63 157.4L1343.64 157.179ZM1883.48 91.45C1839.19 91.45 1807.33 120.967 1807.33 157.2C1807.33 171.148 1811.51 184.086 1820.97 194.684C1830.42 205.284 1845.17 213.564 1866.33 218.156L1866.34 218.156L1889.13 223.356L1889.14 223.356C1896.56 224.961 1901.5 227.274 1904.6 230.116C1907.71 232.967 1908.93 236.336 1908.93 240C1908.93 244.475 1907 248.845 1903.09 252.092C1899.19 255.338 1893.33 257.45 1885.48 257.45C1875.03 257.45 1867.36 254.131 1862.21 249.079C1857.13 244.098 1854.51 237.452 1854.05 230.695L1802.95 239.806C1803.8 250.738 1809.19 266.155 1822.06 278.872C1835.01 291.671 1855.54 301.75 1886.68 301.75C1913.23 301.75 1932.96 293.468 1946.06 280.969C1959.16 268.469 1965.63 251.736 1965.63 234.8C1965.63 220.26 1960.65 206.822 1950.55 195.97C1940.44 185.117 1925.19 176.837 1904.63 172.645L1904.63 172.645L1878.24 167.446L1878.23 167.445C1873.81 166.64 1869.86 165.026 1867.02 162.538C1864.17 160.044 1862.43 156.676 1862.43 152.4C1862.43 141.802 1872.61 134.95 1884.28 134.95C1893.53 134.95 1900.3 137.768 1904.96 142.27C1909.54 146.71 1912.06 152.765 1912.9 159.307L1962.81 150.195C1961.77 138.684 1956.28 124.058 1943.96 112.281C1931.56 100.431 1912.23 91.45 1883.48 91.45ZM1806.83 157.2C1806.83 120.633 1838.97 90.95 1883.48 90.95C1912.34 90.95 1931.8 99.969 1944.3 111.919C1956.8 123.865 1962.33 138.724 1963.33 150.379L1963.35 150.605L1963.13 150.646L1912.73 159.846L1912.46 159.894L1912.43 159.63C1911.64 153.072 1909.16 147.03 1904.61 142.63C1900.06 138.232 1893.43 135.45 1884.28 135.45C1872.75 135.45 1862.93 142.198 1862.93 152.4C1862.93 156.524 1864.6 159.756 1867.35 162.162C1870.1 164.573 1873.95 166.159 1878.33 166.954L1878.33 166.955L1904.73 172.155L1904.73 172.155C1925.37 176.363 1940.72 184.683 1950.91 195.63C1961.11 206.578 1966.13 220.14 1966.13 234.8C1966.13 251.864 1959.61 268.731 1946.4 281.331C1933.2 293.932 1913.33 302.25 1886.68 302.25C1855.42 302.25 1834.76 292.129 1821.71 279.228C1808.66 266.332 1803.24 250.674 1802.43 239.618L1802.42 239.393L1802.64 239.354L1854.24 230.154L1854.51 230.104L1854.53 230.385C1854.93 237.133 1857.51 243.771 1862.56 248.721C1867.6 253.669 1875.14 256.95 1885.48 256.95C1893.24 256.95 1898.98 254.862 1902.77 251.708C1906.57 248.555 1908.43 244.325 1908.43 240C1908.43 236.464 1907.26 233.233 1904.26 230.484C1901.26 227.727 1896.41 225.44 1889.03 223.844L1889.03 223.844L1866.23 218.644C1844.99 214.036 1830.14 205.716 1820.59 195.016C1811.05 184.314 1806.83 171.252 1806.83 157.2ZM234.653 92.25C214.306 92.25 190.01 101.43 179.27 120.125L178.803 120.937V120V97.45H120.503V295.75H180.803V182C180.803 171.947 184.021 163.184 189.769 156.931C195.52 150.676 203.788 146.95 213.853 146.95C224.913 146.95 233.087 150.673 238.492 156.886C243.892 163.094 246.503 171.759 246.503 181.6V295.75H306.803V171.2C306.803 149.439 301.213 129.702 289.41 115.409C277.614 101.124 259.588 92.25 234.653 92.25ZM179.303 119.083C190.386 100.713 214.489 91.75 234.653 91.75C259.718 91.75 277.893 100.676 289.796 115.091C301.693 129.498 307.303 149.361 307.303 171.2V296V296.25H307.053H246.253H246.003V296V181.6C246.003 171.841 243.414 163.306 238.115 157.214C232.82 151.127 224.793 147.45 213.853 147.45C203.918 147.45 195.787 151.124 190.137 157.269C184.486 163.416 181.303 172.053 181.303 182V296V296.25H181.053H120.253H120.003V296V97.2V96.95H120.253H179.053H179.303V97.2V119.083ZM5.94063 96.95H6.19063H66.9906H67.2406V97.2V296V296.25H66.9906H6.19063H5.94063V296V97.2V96.95ZM6.44063 97.45V295.75H66.7406V97.45H6.44063ZM565.049 96.95H565.422H631.422H631.596L631.656 97.1128L677.412 220.057L719.585 97.1189L719.643 96.95H719.822H783.822H784.184L784.056 97.2889L708.456 296.089L708.394 296.25H708.222H647.022H646.854L646.791 296.095L565.191 97.2949L565.049 96.95ZM565.795 97.45L647.19 295.75H708.049L783.459 97.45H720L677.658 220.881L677.431 221.543L677.188 220.887L631.248 97.45H565.795ZM812.534 96.95H812.784H873.584H873.834V97.2V210C873.834 219.558 876.423 228.094 881.674 234.238C886.921 240.375 894.848 244.15 905.584 244.15C915.725 244.15 923.957 240.672 929.654 234.727C935.352 228.781 938.534 220.346 938.534 210.4V97.2V96.95H938.784H999.584H999.834V97.2V260.4C999.834 278.387 1001.43 292.776 1001.83 295.969L1001.87 296.25H1001.58H943.184H942.984L942.94 296.054C942.536 294.234 942.135 290.517 941.835 286.619C941.566 283.125 941.377 279.467 941.341 276.867C930.676 293.644 908.134 300.65 888.384 300.65C864.12 300.65 845.151 291.824 832.25 277.668C819.351 263.516 812.534 244.052 812.534 222.8V97.2V96.95ZM813.034 97.45V222.8C813.034 243.948 819.817 263.284 832.619 277.332C845.418 291.376 864.249 300.15 888.384 300.15C908.347 300.15 931.037 292.961 941.37 275.871L941.834 275.103V276C941.834 278.591 942.034 282.684 942.334 286.581C942.623 290.345 943.005 293.905 943.386 295.75H1001.3C1000.85 292.051 999.334 277.932 999.334 260.4V97.45H939.034V210.4C939.034 220.454 935.816 229.019 930.015 235.073C924.212 241.128 915.844 244.65 905.584 244.65C894.721 244.65 886.648 240.825 881.294 234.562C875.946 228.306 873.334 219.642 873.334 210V97.45H813.034ZM418.22 159.021C426.622 150.869 437.888 146.95 449.344 146.95C460.999 146.95 472.265 150.869 480.618 159.021C488.974 167.176 494.394 179.544 494.394 196.4C494.394 213.256 488.974 225.724 480.619 233.978C472.267 242.23 461.001 246.25 449.344 246.25C437.884 246.25 426.619 242.128 418.218 233.828C409.814 225.525 404.294 213.058 404.294 196.4C404.294 179.543 409.814 167.174 418.22 159.021ZM418.568 159.379C410.273 167.426 404.794 179.657 404.794 196.4C404.794 212.942 410.273 225.275 418.569 233.472C426.868 241.672 438.003 245.75 449.344 245.75C460.887 245.75 472.021 241.77 480.268 233.622C488.513 225.476 493.894 213.144 493.894 196.4C493.894 179.656 488.513 167.424 480.269 159.379C472.023 151.331 460.889 147.45 449.344 147.45C438 147.45 426.865 151.331 418.568 159.379ZM1642.63 159.021C1651.03 150.868 1662.4 146.95 1674.25 146.95C1686.11 146.95 1697.37 150.868 1705.68 159.022C1713.98 167.177 1719.3 179.545 1719.3 196.4C1719.3 213.055 1713.98 225.523 1705.68 233.827C1697.38 242.129 1686.11 246.25 1674.25 246.25C1662.39 246.25 1651.03 242.029 1642.63 233.677C1634.22 225.324 1628.8 212.857 1628.8 196.4C1628.8 179.544 1634.22 167.175 1642.63 159.021ZM1642.98 159.379C1634.68 167.425 1629.3 179.656 1629.3 196.4C1629.3 212.743 1634.68 225.076 1642.98 233.323C1651.28 241.571 1662.51 245.75 1674.25 245.75C1686 245.75 1697.13 241.671 1705.33 233.473C1713.52 225.277 1718.8 212.945 1718.8 196.4C1718.8 179.655 1713.52 167.423 1705.33 159.378C1697.13 151.332 1686 147.45 1674.25 147.45C1662.51 147.45 1651.27 151.332 1642.98 159.379ZM1460.14 208.907V209.2V218C1460.14 233.451 1455.53 243.428 1448.61 249.537C1441.7 255.642 1432.53 257.85 1423.49 257.85C1415.04 257.85 1409.07 255.334 1405.22 251.477C1401.36 247.622 1399.64 242.454 1399.64 237.2C1399.64 230.136 1402.07 225.064 1406.13 221.512C1410.18 217.968 1415.83 215.957 1422.25 214.953L1459.85 208.953L1460.14 208.907ZM1459.64 209.493L1422.33 215.447L1422.29 215.2L1422.33 215.447C1415.96 216.443 1410.41 218.432 1406.46 221.888C1402.52 225.336 1400.14 230.264 1400.14 237.2C1400.14 242.346 1401.83 247.378 1405.57 251.123C1409.31 254.866 1415.14 257.35 1423.49 257.35C1432.46 257.35 1441.49 255.158 1448.28 249.163C1455.06 243.172 1459.64 233.349 1459.64 218V209.493ZM36.1906 310.05C17.1305 310.05 1.24063 325.936 1.24063 345.4C1.24063 364.864 17.1305 380.75 36.1906 380.75C56.0544 380.75 71.9406 364.86 71.9406 345.4C71.9406 325.94 56.0544 310.05 36.1906 310.05ZM0.740625 345.4C0.740625 325.664 16.8507 309.55 36.1906 309.55C56.3269 309.55 72.4406 325.66 72.4406 345.4C72.4406 365.14 56.3269 381.25 36.1906 381.25C16.8507 381.25 0.740625 365.136 0.740625 345.4ZM1239.14 315.15H1239.39H1300.19H1300.44V315.4V605V605.25H1300.19H1239.39H1239.14V605V315.4V315.15ZM1239.64 315.65V604.75H1299.94V315.65H1239.64ZM1570 315.15H1570.25H1629.85H1630.1V315.4V424.205C1638.88 411.98 1660.68 401.15 1687.45 401.15C1716.32 401.15 1739.49 412.179 1755.44 430.687C1771.39 449.191 1780.1 475.153 1780.1 505C1780.1 565.914 1740.81 609.65 1685.05 609.65C1659.02 609.65 1638.77 598.397 1629.3 583.478V605V605.25H1629.05H1570.25H1570V605V315.4V315.15ZM1570.5 315.65V604.75H1628.8V582.6V581.704L1629.27 582.471C1638.41 597.581 1658.72 609.15 1685.05 609.15C1740.49 609.15 1779.6 565.686 1779.6 505C1779.6 475.247 1770.92 449.409 1755.06 431.013C1739.21 412.621 1716.18 401.65 1687.45 401.65C1660.31 401.65 1638.4 412.831 1630.06 425.14L1629.6 425.815V425V315.65H1570.5ZM449.344 400.45C390.277 400.45 343.994 443.943 343.994 505.4C343.994 566.858 390.278 610.75 449.344 610.75C508.809 610.75 554.694 566.859 554.694 505.4C554.694 443.942 508.81 400.45 449.344 400.45ZM343.494 505.4C343.494 443.657 390.011 399.95 449.344 399.95C509.077 399.95 555.194 443.658 555.194 505.4C555.194 567.141 509.079 611.25 449.344 611.25C390.009 611.25 343.494 567.142 343.494 505.4ZM1117.47 400.45C1073.17 400.45 1041.32 429.967 1041.32 466.2C1041.32 480.148 1045.5 493.086 1054.95 503.684C1064.41 514.284 1079.15 522.564 1100.32 527.156L1100.32 527.156L1123.12 532.356L1123.12 532.356C1130.54 533.961 1135.49 536.274 1138.58 539.116C1141.69 541.967 1142.92 545.336 1142.92 549C1142.92 553.475 1140.98 557.845 1137.08 561.092C1133.17 564.338 1127.31 566.45 1119.47 566.45C1109.01 566.45 1101.34 563.131 1096.19 558.079C1091.11 553.098 1088.49 546.452 1088.03 539.695L1036.93 548.806C1037.78 559.738 1043.18 575.155 1056.04 587.872C1068.99 600.671 1089.52 610.75 1120.67 610.75C1147.21 610.75 1166.95 602.468 1180.04 589.969C1193.14 577.469 1199.62 560.736 1199.62 543.8C1199.62 529.26 1194.64 515.822 1184.53 504.97C1174.43 494.117 1159.18 485.837 1138.62 481.645L1138.62 481.645L1112.22 476.446L1112.22 476.445C1107.79 475.64 1103.84 474.026 1101 471.538C1098.15 469.044 1096.42 465.676 1096.42 461.4C1096.42 450.802 1106.6 443.95 1118.27 443.95C1127.52 443.95 1134.29 446.768 1138.94 451.27C1143.53 455.71 1146.04 461.765 1146.88 468.307L1196.8 459.195C1195.75 447.684 1190.26 433.058 1177.94 421.281C1165.55 409.431 1146.21 400.45 1117.47 400.45ZM1040.82 466.2C1040.82 429.633 1072.96 399.95 1117.47 399.95C1146.32 399.95 1165.79 408.969 1178.29 420.919C1190.79 432.865 1196.31 447.724 1197.31 459.379L1197.33 459.605L1197.11 459.646L1146.71 468.846L1146.45 468.894L1146.42 468.63C1145.62 462.072 1143.14 456.03 1138.59 451.63C1134.05 447.232 1127.41 444.45 1118.27 444.45C1106.74 444.45 1096.92 451.198 1096.92 461.4C1096.92 465.524 1098.58 468.756 1101.33 471.162C1104.09 473.573 1107.94 475.159 1112.31 475.954L1112.31 475.955L1138.71 481.155L1138.72 481.155C1159.35 485.363 1174.71 493.683 1184.9 504.63C1195.09 515.578 1200.12 529.14 1200.12 543.8C1200.12 560.864 1193.59 577.731 1180.39 590.331C1167.18 602.932 1147.32 611.25 1120.67 611.25C1089.41 611.25 1068.74 601.129 1055.69 588.228C1042.64 575.332 1037.22 559.674 1036.42 548.618L1036.4 548.393L1036.62 548.354L1088.22 539.154L1088.5 539.104L1088.52 539.385C1088.91 546.133 1091.49 552.771 1096.54 557.721C1101.59 562.669 1109.12 565.95 1119.47 565.95C1127.22 565.95 1132.96 563.862 1136.76 560.708C1140.55 557.555 1142.42 553.325 1142.42 549C1142.42 545.464 1141.24 542.233 1138.25 539.484C1135.24 536.727 1130.39 534.44 1123.01 532.844L1123.01 532.844L1100.21 527.644C1078.98 523.036 1064.12 514.716 1054.58 504.016C1045.03 493.314 1040.82 480.252 1040.82 466.2ZM1344.16 466L1396.47 476.699C1397.8 461.877 1409.49 447.55 1430.69 447.55C1440.34 447.55 1447.7 450.061 1452.65 454.055C1457.61 458.052 1460.14 463.523 1460.14 469.4C1460.14 472.845 1459.23 475.914 1456.92 478.323C1454.62 480.727 1450.96 482.442 1445.53 483.247L1445.53 483.247L1398.73 490.447L1398.73 490.447C1382.37 492.842 1367.72 499.025 1357.17 508.982C1346.62 518.934 1340.14 532.668 1340.14 550.2C1340.14 581.65 1365.22 610.35 1408.69 610.35C1435.02 610.35 1454.13 599.186 1464.48 582.468L1464.94 581.721V582.6C1464.94 595.698 1466.43 602.842 1466.89 604.75H1521.19C1520.69 601.96 1518.84 589.185 1518.84 574.2V477C1518.84 456.647 1512.96 437.517 1499.07 423.476C1485.18 409.436 1463.25 400.45 1431.09 400.45C1372.97 400.45 1346.67 437.757 1344.16 466ZM1343.64 466.179C1346.06 437.648 1372.57 399.95 1431.09 399.95C1463.34 399.95 1485.41 408.964 1499.42 423.124C1513.43 437.283 1519.34 456.553 1519.34 477V574.2C1519.34 589.783 1521.34 602.967 1521.74 604.951L1521.8 605.25H1521.49H1466.69H1466.5L1466.45 605.061C1466.05 603.475 1464.51 596.525 1464.45 583.463C1453.89 599.938 1434.79 610.85 1408.69 610.85C1364.97 610.85 1339.64 581.95 1339.64 550.2C1339.64 532.532 1346.17 518.666 1356.82 508.618C1367.47 498.575 1382.22 492.358 1398.66 489.953L1445.46 482.753L1445.46 482.753C1450.83 481.957 1454.37 480.273 1456.56 477.977C1458.76 475.686 1459.64 472.755 1459.64 469.4C1459.64 463.677 1457.18 458.348 1452.34 454.445C1447.49 450.539 1440.25 448.05 1430.69 448.05C1409.63 448.05 1398.13 462.342 1396.94 477.02L1396.92 477.301L1396.64 477.245L1343.84 466.445L1343.63 466.4L1343.64 466.179ZM1883.48 400.45C1839.19 400.45 1807.33 429.967 1807.33 466.2C1807.33 480.148 1811.51 493.086 1820.97 503.684C1830.42 514.284 1845.17 522.564 1866.33 527.156L1866.34 527.156L1889.13 532.356L1889.14 532.356C1896.56 533.961 1901.5 536.274 1904.6 539.116C1907.71 541.967 1908.93 545.336 1908.93 549C1908.93 553.475 1907 557.845 1903.09 561.092C1899.19 564.338 1893.33 566.45 1885.48 566.45C1875.03 566.45 1867.36 563.131 1862.21 558.079C1857.13 553.098 1854.51 546.452 1854.05 539.695L1802.95 548.806C1803.8 559.738 1809.19 575.155 1822.06 587.872C1835.01 600.671 1855.54 610.75 1886.68 610.75C1913.23 610.75 1932.96 602.468 1946.06 589.969C1959.16 577.469 1965.63 560.736 1965.63 543.8C1965.63 529.26 1960.65 515.822 1950.55 504.97C1940.44 494.117 1925.19 485.837 1904.63 481.645L1904.63 481.645L1878.24 476.446L1878.23 476.445C1873.81 475.64 1869.86 474.026 1867.02 471.538C1864.17 469.044 1862.43 465.676 1862.43 461.4C1862.43 450.802 1872.61 443.95 1884.28 443.95C1893.53 443.95 1900.3 446.768 1904.96 451.27C1909.54 455.71 1912.06 461.765 1912.9 468.307L1962.81 459.195C1961.77 447.684 1956.28 433.058 1943.96 421.281C1931.56 409.431 1912.23 400.45 1883.48 400.45ZM1806.83 466.2C1806.83 429.633 1838.97 399.95 1883.48 399.95C1912.34 399.95 1931.8 408.969 1944.3 420.919C1956.8 432.865 1962.33 447.724 1963.33 459.379L1963.35 459.605L1963.13 459.646L1912.73 468.846L1912.46 468.894L1912.43 468.63C1911.64 462.072 1909.16 456.03 1904.61 451.63C1900.06 447.232 1893.43 444.45 1884.28 444.45C1872.75 444.45 1862.93 451.198 1862.93 461.4C1862.93 465.524 1864.6 468.756 1867.35 471.162C1870.1 473.573 1873.95 475.159 1878.33 475.954L1878.33 475.955L1904.73 481.155L1904.73 481.155C1925.37 485.363 1940.72 493.683 1950.91 504.63C1961.11 515.578 1966.13 529.14 1966.13 543.8C1966.13 560.864 1959.61 577.731 1946.4 590.331C1933.2 602.932 1913.33 611.25 1886.68 611.25C1855.42 611.25 1834.76 601.129 1821.71 588.228C1808.66 575.332 1803.24 559.674 1802.43 548.618L1802.42 548.393L1802.64 548.354L1854.24 539.154L1854.51 539.104L1854.53 539.385C1854.93 546.133 1857.51 552.771 1862.56 557.721C1867.6 562.669 1875.14 565.95 1885.48 565.95C1893.24 565.95 1898.98 563.862 1902.77 560.708C1906.57 557.555 1908.43 553.325 1908.43 549C1908.43 545.464 1907.26 542.233 1904.26 539.484C1901.26 536.727 1896.41 534.44 1889.03 532.844L1889.03 532.844L1866.23 527.644C1844.99 523.036 1830.14 514.716 1820.59 504.016C1811.05 493.314 1806.83 480.252 1806.83 466.2ZM234.653 401.25C214.306 401.25 190.01 410.43 179.27 429.125L178.803 429.937V429V406.45H120.503V604.75H180.803V491C180.803 480.947 184.021 472.184 189.769 465.931C195.52 459.676 203.788 455.95 213.853 455.95C224.913 455.95 233.087 459.673 238.492 465.886C243.892 472.094 246.503 480.759 246.503 490.6V604.75H306.803V480.2C306.803 458.439 301.213 438.702 289.41 424.409C277.614 410.124 259.588 401.25 234.653 401.25ZM179.303 428.083C190.386 409.713 214.489 400.75 234.653 400.75C259.718 400.75 277.893 409.676 289.796 424.091C301.693 438.498 307.303 458.361 307.303 480.2V605V605.25H307.053H246.253H246.003V605V490.6C246.003 480.841 243.414 472.306 238.115 466.214C232.82 460.127 224.793 456.45 213.853 456.45C203.918 456.45 195.787 460.124 190.137 466.269C184.486 472.416 181.303 481.053 181.303 491V605V605.25H181.053H120.253H120.003V605V406.2V405.95H120.253H179.053H179.303V406.2V428.083ZM5.94063 405.95H6.19063H66.9906H67.2406V406.2V605V605.25H66.9906H6.19063H5.94063V605V406.2V405.95ZM6.44063 406.45V604.75H66.7406V406.45H6.44063ZM565.049 405.95H565.422H631.422H631.596L631.656 406.113L677.412 529.057L719.585 406.119L719.643 405.95H719.822H783.822H784.184L784.056 406.289L708.456 605.089L708.394 605.25H708.222H647.022H646.854L646.791 605.095L565.191 406.295L565.049 405.95ZM565.795 406.45L647.19 604.75H708.049L783.459 406.45H720L677.658 529.881L677.431 530.543L677.188 529.887L631.248 406.45H565.795ZM812.534 405.95H812.784H873.584H873.834V406.2V519C873.834 528.558 876.423 537.094 881.674 543.238C886.921 549.375 894.848 553.15 905.584 553.15C915.725 553.15 923.957 549.672 929.654 543.727C935.352 537.781 938.534 529.346 938.534 519.4V406.2V405.95H938.784H999.584H999.834V406.2V569.4C999.834 587.387 1001.43 601.776 1001.83 604.969L1001.87 605.25H1001.58H943.184H942.984L942.94 605.054C942.536 603.234 942.135 599.517 941.835 595.619C941.566 592.125 941.377 588.467 941.341 585.867C930.676 602.644 908.134 609.65 888.384 609.65C864.12 609.65 845.151 600.824 832.25 586.668C819.351 572.516 812.534 553.052 812.534 531.8V406.2V405.95ZM813.034 406.45V531.8C813.034 552.948 819.817 572.284 832.619 586.332C845.418 600.376 864.249 609.15 888.384 609.15C908.347 609.15 931.037 601.961 941.37 584.871L941.834 584.103V585C941.834 587.591 942.034 591.684 942.334 595.581C942.623 599.345 943.005 602.905 943.386 604.75H1001.3C1000.85 601.051 999.334 586.932 999.334 569.4V406.45H939.034V519.4C939.034 529.454 935.816 538.019 930.015 544.073C924.212 550.128 915.844 553.65 905.584 553.65C894.721 553.65 886.648 549.825 881.294 543.562C875.946 537.306 873.334 528.642 873.334 519V406.45H813.034ZM418.22 468.021C426.622 459.869 437.888 455.95 449.344 455.95C460.999 455.95 472.265 459.869 480.618 468.021C488.974 476.176 494.394 488.544 494.394 505.4C494.394 522.256 488.974 534.724 480.619 542.978C472.267 551.23 461.001 555.25 449.344 555.25C437.884 555.25 426.619 551.128 418.218 542.828C409.814 534.525 404.294 522.058 404.294 505.4C404.294 488.543 409.814 476.174 418.22 468.021ZM418.568 468.379C410.273 476.426 404.794 488.657 404.794 505.4C404.794 521.942 410.273 534.275 418.569 542.472C426.868 550.672 438.003 554.75 449.344 554.75C460.887 554.75 472.021 550.77 480.268 542.622C488.513 534.476 493.894 522.144 493.894 505.4C493.894 488.656 488.513 476.424 480.269 468.379C472.023 460.331 460.889 456.45 449.344 456.45C438 456.45 426.865 460.331 418.568 468.379ZM1642.63 468.021C1651.03 459.868 1662.4 455.95 1674.25 455.95C1686.11 455.95 1697.37 459.868 1705.68 468.022C1713.98 476.177 1719.3 488.545 1719.3 505.4C1719.3 522.055 1713.98 534.523 1705.68 542.827C1697.38 551.129 1686.11 555.25 1674.25 555.25C1662.39 555.25 1651.03 551.029 1642.63 542.677C1634.22 534.324 1628.8 521.857 1628.8 505.4C1628.8 488.544 1634.22 476.175 1642.63 468.021ZM1642.98 468.379C1634.68 476.425 1629.3 488.656 1629.3 505.4C1629.3 521.743 1634.68 534.076 1642.98 542.323C1651.28 550.571 1662.51 554.75 1674.25 554.75C1686 554.75 1697.13 550.671 1705.33 542.473C1713.52 534.277 1718.8 521.945 1718.8 505.4C1718.8 488.655 1713.52 476.423 1705.33 468.378C1697.13 460.332 1686 456.45 1674.25 456.45C1662.51 456.45 1651.27 460.332 1642.98 468.379ZM1460.14 517.907V518.2V527C1460.14 542.451 1455.53 552.428 1448.61 558.537C1441.7 564.642 1432.53 566.85 1423.49 566.85C1415.04 566.85 1409.07 564.334 1405.22 560.477C1401.36 556.622 1399.64 551.454 1399.64 546.2C1399.64 539.136 1402.07 534.064 1406.13 530.512C1410.18 526.968 1415.83 524.957 1422.25 523.953L1459.85 517.953L1460.14 517.907ZM1459.64 518.493L1422.33 524.447L1422.29 524.2L1422.33 524.447C1415.96 525.443 1410.41 527.432 1406.46 530.888C1402.52 534.336 1400.14 539.264 1400.14 546.2C1400.14 551.346 1401.83 556.378 1405.57 560.123C1409.31 563.866 1415.14 566.35 1423.49 566.35C1432.46 566.35 1441.49 564.159 1448.28 558.163C1455.06 552.172 1459.64 542.349 1459.64 527V518.493ZM1.24063 654.4C1.24063 634.936 17.1305 619.05 36.1906 619.05C56.0544 619.05 71.9406 634.94 71.9406 654.4C71.9406 673.86 56.0544 689.75 36.1906 689.75C17.1305 689.75 1.24063 673.864 1.24063 654.4ZM36.1906 618.55C16.8507 618.55 0.740625 634.664 0.740625 654.4C0.740625 674.136 16.8507 690.25 36.1906 690.25C56.3269 690.25 72.4406 674.14 72.4406 654.4C72.4406 634.66 56.3269 618.55 36.1906 618.55ZM1239.39 624.15H1239.14V624.4V914V914.25H1239.39H1300.19H1300.44V914V624.4V624.15H1300.19H1239.39ZM1239.64 913.75V624.65H1299.94V913.75H1239.64ZM1570.25 624.15H1570V624.4V914V914.25H1570.25H1629.05H1629.3V914V892.478C1638.77 907.397 1659.02 918.65 1685.05 918.65C1740.81 918.65 1780.1 874.914 1780.1 814C1780.1 784.153 1771.39 758.191 1755.44 739.687C1739.49 721.179 1716.32 710.15 1687.45 710.15C1660.68 710.15 1638.88 720.98 1630.1 733.205V624.4V624.15H1629.85H1570.25ZM1570.5 913.75V624.65H1629.6V734V734.815L1630.06 734.14C1638.4 721.831 1660.31 710.65 1687.45 710.65C1716.18 710.65 1739.21 721.621 1755.06 740.013C1770.92 758.409 1779.6 784.247 1779.6 814C1779.6 874.686 1740.49 918.15 1685.05 918.15C1658.72 918.15 1638.41 906.581 1629.27 891.471L1628.8 890.704V891.6V913.75H1570.5ZM343.994 814.4C343.994 752.943 390.277 709.45 449.344 709.45C508.81 709.45 554.694 752.942 554.694 814.4C554.694 875.859 508.809 919.75 449.344 919.75C390.278 919.75 343.994 875.858 343.994 814.4ZM449.344 708.95C390.011 708.95 343.494 752.657 343.494 814.4C343.494 876.142 390.009 920.25 449.344 920.25C509.079 920.25 555.194 876.141 555.194 814.4C555.194 752.658 509.077 708.95 449.344 708.95ZM1041.32 775.2C1041.32 738.967 1073.17 709.45 1117.47 709.45C1146.21 709.45 1165.55 718.431 1177.94 730.281C1190.26 742.058 1195.75 756.684 1196.8 768.195L1146.88 777.307C1146.04 770.765 1143.53 764.71 1138.94 760.27C1134.29 755.768 1127.52 752.95 1118.27 752.95C1106.6 752.95 1096.42 759.802 1096.42 770.4C1096.42 774.676 1098.15 778.044 1101 780.538C1103.84 783.026 1107.79 784.64 1112.22 785.445L1112.22 785.446L1138.62 790.645L1138.62 790.645C1159.18 794.837 1174.43 803.117 1184.53 813.97C1194.64 824.822 1199.62 838.26 1199.62 852.8C1199.62 869.736 1193.14 886.469 1180.04 898.969C1166.95 911.468 1147.21 919.75 1120.67 919.75C1089.52 919.75 1068.99 909.671 1056.04 896.872C1043.18 884.155 1037.78 868.738 1036.93 857.806L1088.03 848.695C1088.49 855.452 1091.11 862.098 1096.19 867.079C1101.34 872.131 1109.01 875.45 1119.47 875.45C1127.31 875.45 1133.17 873.338 1137.08 870.092C1140.98 866.845 1142.92 862.475 1142.92 858C1142.92 854.336 1141.69 850.967 1138.58 848.116C1135.49 845.274 1130.54 842.961 1123.12 841.356L1123.12 841.356L1100.32 836.156L1100.32 836.156C1079.15 831.564 1064.41 823.284 1054.95 812.684C1045.5 802.086 1041.32 789.148 1041.32 775.2ZM1117.47 708.95C1072.96 708.95 1040.82 738.633 1040.82 775.2C1040.82 789.252 1045.03 802.314 1054.58 813.016C1064.12 823.716 1078.98 832.036 1100.21 836.644L1123.01 841.844L1123.01 841.844C1130.39 843.44 1135.24 845.727 1138.25 848.484C1141.24 851.233 1142.42 854.464 1142.42 858C1142.42 862.325 1140.55 866.555 1136.76 869.708C1132.96 872.862 1127.22 874.95 1119.47 874.95C1109.12 874.95 1101.59 871.669 1096.54 866.721C1091.49 861.771 1088.91 855.133 1088.52 848.385L1088.5 848.104L1088.22 848.154L1036.62 857.354L1036.4 857.393L1036.42 857.618C1037.22 868.674 1042.64 884.332 1055.69 897.228C1068.74 910.129 1089.41 920.25 1120.67 920.25C1147.32 920.25 1167.18 911.932 1180.39 899.331C1193.59 886.731 1200.12 869.864 1200.12 852.8C1200.12 838.14 1195.09 824.578 1184.9 813.63C1174.71 802.683 1159.35 794.363 1138.72 790.155L1138.71 790.155L1112.31 784.955L1112.31 784.954C1107.94 784.159 1104.09 782.573 1101.33 780.162C1098.58 777.756 1096.92 774.524 1096.92 770.4C1096.92 760.198 1106.74 753.45 1118.27 753.45C1127.41 753.45 1134.05 756.232 1138.59 760.63C1143.14 765.03 1145.62 771.072 1146.42 777.63L1146.45 777.894L1146.71 777.846L1197.11 768.646L1197.33 768.605L1197.31 768.379C1196.31 756.724 1190.79 741.865 1178.29 729.919C1165.79 717.969 1146.32 708.95 1117.47 708.95ZM1396.47 785.699L1344.16 775C1346.67 746.757 1372.97 709.45 1431.09 709.45C1463.25 709.45 1485.18 718.436 1499.07 732.476C1512.96 746.517 1518.84 765.647 1518.84 786V883.2C1518.84 898.185 1520.69 910.96 1521.19 913.75H1466.89C1466.43 911.842 1464.94 904.698 1464.94 891.6V890.721L1464.48 891.468C1454.13 908.186 1435.02 919.35 1408.69 919.35C1365.22 919.35 1340.14 890.65 1340.14 859.2C1340.14 841.668 1346.62 827.934 1357.17 817.982C1367.72 808.025 1382.37 801.842 1398.73 799.447L1398.73 799.447L1445.53 792.247L1445.53 792.247C1450.96 791.442 1454.62 789.727 1456.92 787.323C1459.23 784.914 1460.14 781.845 1460.14 778.4C1460.14 772.523 1457.61 767.052 1452.65 763.055C1447.7 759.061 1440.34 756.55 1430.69 756.55C1409.49 756.55 1397.8 770.877 1396.47 785.699ZM1431.09 708.95C1372.57 708.95 1346.06 746.648 1343.64 775.179L1343.63 775.4L1343.84 775.445L1396.64 786.245L1396.92 786.301L1396.94 786.02C1398.13 771.342 1409.63 757.05 1430.69 757.05C1440.25 757.05 1447.49 759.539 1452.34 763.445C1457.18 767.348 1459.64 772.677 1459.64 778.4C1459.64 781.755 1458.76 784.686 1456.56 786.977C1454.37 789.273 1450.83 790.957 1445.46 791.753L1445.46 791.753L1398.66 798.953C1382.22 801.358 1367.47 807.575 1356.82 817.618C1346.17 827.666 1339.64 841.532 1339.64 859.2C1339.64 890.95 1364.97 919.85 1408.69 919.85C1434.79 919.85 1453.89 908.938 1464.45 892.463C1464.51 905.525 1466.05 912.475 1466.45 914.061L1466.5 914.25H1466.69H1521.49H1521.8L1521.74 913.951C1521.34 911.967 1519.34 898.783 1519.34 883.2V786C1519.34 765.553 1513.43 746.283 1499.42 732.124C1485.41 717.964 1463.34 708.95 1431.09 708.95ZM1807.33 775.2C1807.33 738.967 1839.19 709.45 1883.48 709.45C1912.23 709.45 1931.56 718.431 1943.96 730.281C1956.28 742.058 1961.77 756.684 1962.81 768.195L1912.9 777.307C1912.06 770.765 1909.54 764.71 1904.96 760.27C1900.3 755.768 1893.53 752.95 1884.28 752.95C1872.61 752.95 1862.43 759.802 1862.43 770.4C1862.43 774.676 1864.17 778.044 1867.02 780.538C1869.86 783.026 1873.81 784.64 1878.23 785.445L1878.24 785.446L1904.63 790.645L1904.63 790.645C1925.19 794.837 1940.44 803.117 1950.55 813.97C1960.65 824.822 1965.63 838.26 1965.63 852.8C1965.63 869.736 1959.16 886.469 1946.06 898.969C1932.96 911.468 1913.23 919.75 1886.68 919.75C1855.54 919.75 1835.01 909.671 1822.06 896.872C1809.19 884.155 1803.8 868.738 1802.95 857.806L1854.05 848.695C1854.51 855.452 1857.13 862.098 1862.21 867.079C1867.36 872.131 1875.03 875.45 1885.48 875.45C1893.33 875.45 1899.19 873.338 1903.09 870.092C1907 866.845 1908.93 862.475 1908.93 858C1908.93 854.336 1907.71 850.967 1904.6 848.116C1901.5 845.274 1896.56 842.961 1889.14 841.356L1889.13 841.356L1866.34 836.156L1866.33 836.156C1845.17 831.564 1830.42 823.284 1820.97 812.684C1811.51 802.086 1807.33 789.148 1807.33 775.2ZM1883.48 708.95C1838.97 708.95 1806.83 738.633 1806.83 775.2C1806.83 789.252 1811.05 802.314 1820.59 813.016C1830.14 823.716 1844.99 832.036 1866.23 836.644L1889.03 841.844L1889.03 841.844C1896.41 843.44 1901.26 845.727 1904.26 848.484C1907.26 851.233 1908.43 854.464 1908.43 858C1908.43 862.325 1906.57 866.555 1902.77 869.708C1898.98 872.862 1893.24 874.95 1885.48 874.95C1875.14 874.95 1867.6 871.669 1862.56 866.721C1857.51 861.771 1854.93 855.133 1854.53 848.385L1854.51 848.104L1854.24 848.154L1802.64 857.354L1802.42 857.393L1802.43 857.618C1803.24 868.674 1808.66 884.332 1821.71 897.228C1834.76 910.129 1855.42 920.25 1886.68 920.25C1913.33 920.25 1933.2 911.932 1946.4 899.331C1959.61 886.731 1966.13 869.864 1966.13 852.8C1966.13 838.14 1961.11 824.578 1950.91 813.63C1940.72 802.683 1925.37 794.363 1904.73 790.155L1904.73 790.155L1878.33 784.955L1878.33 784.954C1873.95 784.159 1870.1 782.573 1867.35 780.162C1864.6 777.756 1862.93 774.524 1862.93 770.4C1862.93 760.198 1872.75 753.45 1884.28 753.45C1893.43 753.45 1900.06 756.232 1904.61 760.63C1909.16 765.03 1911.64 771.072 1912.43 777.63L1912.46 777.894L1912.73 777.846L1963.13 768.646L1963.35 768.605L1963.33 768.379C1962.33 756.724 1956.8 741.865 1944.3 729.919C1931.8 717.969 1912.34 708.95 1883.48 708.95ZM179.27 738.125C190.01 719.43 214.306 710.25 234.653 710.25C259.588 710.25 277.614 719.124 289.41 733.409C301.213 747.702 306.803 767.439 306.803 789.2V913.75H246.503V799.6C246.503 789.759 243.892 781.094 238.492 774.886C233.087 768.673 224.913 764.95 213.853 764.95C203.788 764.95 195.52 768.676 189.769 774.931C184.021 781.184 180.803 789.947 180.803 800V913.75H120.503V715.45H178.803V738V738.937L179.27 738.125ZM234.653 709.75C214.489 709.75 190.386 718.713 179.303 737.083V715.2V714.95H179.053H120.253H120.003V715.2V914V914.25H120.253H181.053H181.303V914V800C181.303 790.053 184.486 781.416 190.137 775.269C195.787 769.124 203.918 765.45 213.853 765.45C224.793 765.45 232.82 769.127 238.115 775.214C243.414 781.306 246.003 789.841 246.003 799.6V914V914.25H246.253H307.053H307.303V914V789.2C307.303 767.361 301.693 747.498 289.796 733.091C277.893 718.676 259.718 709.75 234.653 709.75ZM6.19063 714.95H5.94063V715.2V914V914.25H6.19063H66.9906H67.2406V914V715.2V714.95H66.9906H6.19063ZM6.44063 913.75V715.45H66.7406V913.75H6.44063ZM565.422 714.95H565.049L565.191 715.295L646.791 914.095L646.854 914.25H647.022H708.222H708.394L708.456 914.089L784.056 715.289L784.184 714.95H783.822H719.822H719.643L719.585 715.119L677.412 838.057L631.656 715.113L631.596 714.95H631.422H565.422ZM647.19 913.75L565.795 715.45H631.248L677.188 838.887L677.431 839.543L677.658 838.881L720 715.45H783.459L708.049 913.75H647.19ZM812.784 714.95H812.534V715.2V840.8C812.534 862.052 819.351 881.516 832.25 895.668C845.151 909.824 864.12 918.65 888.384 918.65C908.134 918.65 930.676 911.644 941.341 894.867C941.377 897.467 941.566 901.125 941.835 904.619C942.135 908.517 942.536 912.234 942.94 914.054L942.984 914.25H943.184H1001.58H1001.87L1001.83 913.969C1001.43 910.776 999.834 896.387 999.834 878.4V715.2V714.95H999.584H938.784H938.534V715.2V828.4C938.534 838.346 935.352 846.781 929.654 852.727C923.957 858.672 915.725 862.15 905.584 862.15C894.848 862.15 886.921 858.375 881.674 852.238C876.423 846.094 873.834 837.558 873.834 828V715.2V714.95H873.584H812.784ZM813.034 840.8V715.45H873.334V828C873.334 837.642 875.946 846.306 881.294 852.562C886.648 858.825 894.721 862.65 905.584 862.65C915.844 862.65 924.212 859.128 930.015 853.073C935.816 847.019 939.034 838.454 939.034 828.4V715.45H999.334V878.4C999.334 895.932 1000.85 910.051 1001.3 913.75H943.386C943.005 911.905 942.623 908.345 942.334 904.581C942.034 900.684 941.834 896.591 941.834 894V893.103L941.37 893.871C931.037 910.961 908.347 918.15 888.384 918.15C864.249 918.15 845.418 909.376 832.619 895.332C819.817 881.284 813.034 861.948 813.034 840.8ZM449.344 764.95C437.888 764.95 426.622 768.869 418.22 777.021C409.814 785.174 404.294 797.543 404.294 814.4C404.294 831.058 409.814 843.525 418.218 851.828C426.619 860.128 437.884 864.25 449.344 864.25C461.001 864.25 472.267 860.23 480.619 851.978C488.974 843.724 494.394 831.256 494.394 814.4C494.394 797.544 488.974 785.176 480.618 777.021C472.265 768.869 460.999 764.95 449.344 764.95ZM404.794 814.4C404.794 797.657 410.273 785.426 418.568 777.379C426.865 769.331 438 765.45 449.344 765.45C460.889 765.45 472.023 769.331 480.269 777.379C488.513 785.424 493.894 797.656 493.894 814.4C493.894 831.144 488.513 843.476 480.268 851.622C472.021 859.77 460.887 863.75 449.344 863.75C438.003 863.75 426.868 859.672 418.569 851.472C410.273 843.275 404.794 830.942 404.794 814.4ZM1674.25 764.95C1662.4 764.95 1651.03 768.868 1642.63 777.021C1634.22 785.175 1628.8 797.544 1628.8 814.4C1628.8 830.857 1634.22 843.324 1642.63 851.677C1651.03 860.029 1662.39 864.25 1674.25 864.25C1686.11 864.25 1697.38 860.129 1705.68 851.827C1713.98 843.523 1719.3 831.055 1719.3 814.4C1719.3 797.545 1713.98 785.177 1705.68 777.022C1697.37 768.868 1686.11 764.95 1674.25 764.95ZM1629.3 814.4C1629.3 797.656 1634.68 785.425 1642.98 777.379C1651.27 769.332 1662.51 765.45 1674.25 765.45C1686 765.45 1697.13 769.331 1705.33 777.378C1713.52 785.423 1718.8 797.655 1718.8 814.4C1718.8 830.945 1713.52 843.277 1705.33 851.473C1697.13 859.671 1686 863.75 1674.25 863.75C1662.51 863.75 1651.28 859.571 1642.98 851.323C1634.68 843.076 1629.3 830.743 1629.3 814.4ZM1460.14 827.2V826.907L1459.85 826.953L1422.25 832.953C1415.83 833.957 1410.18 835.968 1406.13 839.512C1402.07 843.064 1399.64 848.136 1399.64 855.2C1399.64 860.454 1401.36 865.622 1405.22 869.477C1409.07 873.334 1415.04 875.85 1423.49 875.85C1432.53 875.85 1441.7 873.642 1448.61 867.537C1455.53 861.428 1460.14 851.451 1460.14 836V827.2ZM1422.33 833.447L1459.64 827.493V836C1459.64 851.349 1455.06 861.172 1448.28 867.163C1441.49 873.159 1432.46 875.35 1423.49 875.35C1415.14 875.35 1409.31 872.866 1405.57 869.123C1401.83 865.378 1400.14 860.346 1400.14 855.2C1400.14 848.264 1402.52 843.336 1406.46 839.888C1410.41 836.432 1415.96 834.443 1422.33 833.447L1422.29 833.2L1422.33 833.447Z" fill="#5EACFF"/>
</svg>
