<svg width="285" height="74" viewBox="0 0 285 74" fill="none" xmlns="http://www.w3.org/2000/svg">
<path d="M0 0H7.40973L47.2942 28.1689V0H73.0453V72.3244H63.2114L25.6596 47.4614V72.3244H0V0Z" fill="#111928"/>
<path d="M123.633 32.0636C123.023 31.7617 122.23 31.6108 121.254 31.6108C120.309 31.6108 119.257 31.8976 118.098 32.4712C116.939 33.0147 115.796 33.7695 114.668 34.7356C112.289 36.7887 110.292 39.2795 108.676 42.2081C107.06 45.1367 106.252 47.8388 106.252 50.3146C106.252 52.7601 107.197 54.4056 109.088 55.2509C109.758 55.5528 110.582 55.7038 111.558 55.7038C112.533 55.7038 113.555 55.417 114.622 54.8433C115.689 54.2395 116.757 53.4394 117.824 52.4431C120.05 50.3599 122.001 47.8388 123.678 44.8801C125.355 41.8911 126.194 39.2191 126.194 36.8641C126.194 34.5092 125.34 32.909 123.633 32.0636ZM114.759 74C106.038 74 98.5219 71.2676 92.2099 65.8029C85.471 60.0061 82.1016 52.7148 82.1016 43.929C82.1016 35.113 85.2576 27.9123 91.5696 22.3268C97.8816 16.7111 105.672 13.9033 114.942 13.9033C124.212 13.9033 132.003 16.6508 138.315 22.1457C144.627 27.6104 147.798 34.9319 147.829 44.1102C147.859 49.9976 146.35 55.2056 143.3 59.7344C140.251 64.2632 136.18 67.7654 131.088 70.2411C125.996 72.7169 120.553 73.9698 114.759 74Z" fill="#111928"/>
<path d="M184.145 32.6071L191.921 16.0318H213.739L185.701 72.2338C185.152 73.4113 183.962 74 182.133 74C180.303 74 179.068 73.4113 178.428 72.2338L148.926 16.0318H175.684L184.145 32.6071Z" fill="#111928"/>
<path d="M223.298 67.3427C220.859 65.0783 218.907 62.2403 217.443 58.8286C216.01 55.3868 215.294 51.6883 215.294 47.7332C215.294 43.7781 215.69 40.3513 216.483 37.4529C218.069 31.6863 220.843 26.8405 224.807 22.9155C226.698 20.9833 228.802 19.3529 231.119 18.0245C235.876 15.277 240.892 13.9033 246.168 13.9033C251.473 13.9033 256.123 15.6393 260.118 19.1114C261.399 20.2285 262.512 21.5116 263.457 22.9608L269.998 16.0318H285V72.3244H269.998L263.457 62.9498C258.456 70.2562 250.879 73.9245 240.725 73.9547C237.919 73.9849 234.916 73.4415 231.714 72.3244C228.543 71.2375 225.737 69.5769 223.298 67.3427ZM260.347 33.1053C259.249 32.4712 257.938 32.1542 256.413 32.1542C254.888 32.1542 253.272 32.6977 251.565 33.7846C249.888 34.8413 248.378 36.1848 247.037 37.8152C244.048 41.4684 242.554 45.182 242.554 48.9559C242.554 51.6128 243.377 53.4847 245.024 54.5716C246.549 55.5679 248.866 55.4321 251.976 54.164C255.117 52.8658 257.907 51.1901 260.347 49.1371V33.1053Z" fill="#111928"/>
</svg>
